<svg xmlns="http://www.w3.org/2000/svg" width="26.751" height="16.464" viewBox="0 0 26.751 16.464">
  <path id="Tracé_16803" data-name="Tracé 16803" d="M1173.594,2379.17c-.044-.044-.094-.077-.141-.116a1.79,1.79,0,0,0-.233-.218l-6.2-6.2a1.746,1.746,0,0,0-2.469,2.469l3.351,3.351h-18.8a1.746,1.746,0,1,0,0,3.492h19.244l-3.661,3.66a1.747,1.747,0,0,0,0,2.469h0a1.747,1.747,0,0,0,2.469,0l6.44-6.44A1.746,1.746,0,0,0,1173.594,2379.17Z" transform="translate(1174.106 2388.591) rotate(180)" fill="#000"/>
</svg>
