<svg xmlns="http://www.w3.org/2000/svg" width="25.189" height="20.333" viewBox="0 0 25.189 20.333">
  <g id="Multimedia" transform="translate(-206.334 -1937.346)">
    <path id="Tracé_16725" data-name="Tracé 16725" d="M230.428,1940.315h-4.162l-1.314-2.969H213.124l-1.534,2.969h-4.162a1.123,1.123,0,0,0-1.1,1.143v15.079a1.123,1.123,0,0,0,1.1,1.142h23a1.123,1.123,0,0,0,1.1-1.142v-15.079A1.123,1.123,0,0,0,230.428,1940.315Zm-11.465,15.835a7.7,7.7,0,1,1,7.372-7.689A7.535,7.535,0,0,1,218.962,1956.151Z" transform="translate(0)" fill="#000"/>
    <path id="Tracé_16726" data-name="Tracé 16726" d="M221.586,1944.767a5.325,5.325,0,0,0-.968.091,2.835,2.835,0,0,1,2.063,2.765,2.74,2.74,0,1,1-5.475,0,2.966,2.966,0,0,1,.081-.679,5.845,5.845,0,0,0-1.176,3.535,5.481,5.481,0,1,0,5.476-5.712Z" transform="translate(-2.657 -2.017)" fill="#000"/>
  </g>
</svg>
