<svg xmlns="http://www.w3.org/2000/svg" width="21.377" height="27.1" viewBox="0 0 21.377 27.1">
  <g id="gymnast-diet-list-on-a-clipboard-and-a-carrot-on-a-fork" transform="translate(-20.438)">
    <path id="Tracé_5" data-name="Tracé 5" d="M28.052,24.409H21.312V4.864h3.249V5.8A.437.437,0,0,0,25,6.238h8.244a.437.437,0,0,0,.437-.437V4.864h3.251v5.364a.436.436,0,1,0,.873,0v-5.8a.438.438,0,0,0-.437-.437H33.679v-1.2a.437.437,0,0,0-.437-.436H31.454V2.334a2.334,2.334,0,0,0-4.669,0v.022H25a.437.437,0,0,0-.437.436v1.2H20.875a.437.437,0,0,0-.437.437V24.844a.437.437,0,0,0,.437.436h7.177a.436.436,0,1,0,0-.872ZM25.433,3.229h1.851a.436.436,0,0,0,.423-.544,1.405,1.405,0,0,1-.049-.351,1.461,1.461,0,0,1,2.923,0,1.433,1.433,0,0,1-.05.353.436.436,0,0,0,.424.542H32.8V5.366H25.433V3.229ZM34.76,9.8a.438.438,0,0,1-.436.437h-10.4a.436.436,0,1,1,0-.873h10.4A.435.435,0,0,1,34.76,9.8Zm-.436,4.219h-10.4a.437.437,0,0,1,0-.873h10.4a.437.437,0,0,1,0,.873ZM29,18.161h-5.08a.436.436,0,1,1,0-.873H29a.436.436,0,0,1,0,.873ZM27.907,20.78a.436.436,0,1,1,0,.873H23.918a.436.436,0,1,1,0-.873Zm13.909,5.678s-2.737-2.506-3.43-3.141l.262-.286a1.075,1.075,0,0,0,.275-.783,1.5,1.5,0,0,0-.5-1.014l-1.613-1.477a6.258,6.258,0,0,0,1.546-2.73,1.853,1.853,0,0,0-.276-1.338c.605-.225,1.961-.711,2.868-1.036a.437.437,0,0,0-.293-.824c-1.106.395-1.83.655-2.311.831l.986-1.248a.437.437,0,0,0-.687-.541l-.975,1.236.341-2.192a.437.437,0,0,0-.863-.134l-.42,2.716a1.783,1.783,0,0,0-.746-.174c-.99,0-2.163.8-3.8,2.589a20.258,20.258,0,0,0-3.223,4.517c-.762,1.558-.844,2.674-.237,3.23a1.292,1.292,0,0,0,.907.317c1.036,0,2.656-.909,4.378-2.379l1.727,1.581a1.491,1.491,0,0,0,1,.407,1.094,1.094,0,0,0,.814-.34l.261-.287c.7.639,3.428,3.141,3.428,3.141Zm-3.979-4.581a.632.632,0,0,1,.215.409.212.212,0,0,1-.047.156l-.261.286-1.977-1.811c.122-.127.242-.245.363-.378.039-.043.073-.082.111-.124ZM29.3,24.017c-.166-.153-.261-.786.432-2.2a12.958,12.958,0,0,1,.637-1.132l1.08.989a.428.428,0,0,0,.295.116.444.444,0,0,0,.322-.141.437.437,0,0,0-.027-.617l-1.182-1.083c.239-.346.5-.691.775-1.04l1.279,1.173a.437.437,0,0,0,.591-.645l-1.288-1.182c-.011-.009-.021-.01-.031-.019.206-.242.41-.489.63-.729.082-.091.159-.166.238-.25a.448.448,0,0,0,.034.048l1.29,1.18a.433.433,0,0,0,.295.114.437.437,0,0,0,.3-.759l-1.29-1.18c-.007-.007-.018-.009-.023-.014,1-.966,1.764-1.446,2.322-1.446a1.43,1.43,0,0,1,.957.493,1.252,1.252,0,0,1,.563,1.2,7.31,7.31,0,0,1-2.01,3.059c-2.5,2.728-4.845,4.155-5.867,4.155A.458.458,0,0,1,29.3,24.017Zm7.009-.481-1.662-1.522c.168-.155.336-.307.5-.473l2,1.829-.261.286C36.794,23.76,36.529,23.733,36.314,23.536Z" fill="#000"/>
  </g>
</svg>
