<svg id="region" xmlns="http://www.w3.org/2000/svg" width="21.582" height="21.582" viewBox="0 0 21.582 21.582">
  <g id="Groupe_7" data-name="Groupe 7">
    <path id="Tracé_4" data-name="Tracé 4" d="M21.222,0H.36A.36.36,0,0,0,0,.36V21.222a.36.36,0,0,0,.36.36H21.222a.36.36,0,0,0,.36-.36V.36A.36.36,0,0,0,21.222,0ZM.719.719h5.4c0,1.085,0,4.267,0,4.316,0,3.263-2.011,5.25-5.4,5.383ZM6.8,5.755h6.507v7.194H4.676V9.861A5.607,5.607,0,0,0,6.8,5.755Zm3.989,14.028v1.079H.719V11.137a7.284,7.284,0,0,0,3.237-.818v2.989a.36.36,0,0,0,.36.36H6.475v2.878a.36.36,0,0,0,.36.36H11.87v2.519h-.719A.36.36,0,0,0,10.791,19.783Zm10.071,1.079H11.51v-.719H17c.306,0,.622,0,.622-.36V16.546a3.112,3.112,0,0,1,3.237-3.224Zm0-8.26a3.824,3.824,0,0,0-3.957,3.943v2.878H12.589V16.546a.36.36,0,0,0-.106-.255.4.4,0,0,0-.255-.105H7.194V13.668h6.474a.36.36,0,0,0,.36-.36V5.755h6.834Zm0-7.567H6.8c.035-.311.035-.951.035-2.338V.719H20.862Z" fill="#000"/>
  </g>
</svg>
