<svg xmlns="http://www.w3.org/2000/svg" width="22.645" height="23.426" viewBox="0 0 22.645 23.426">
  <path id="food-serving" d="M25.171,28.494h2.075a1.163,1.163,0,0,0,.312,1.254l3.205,2.938h0l.008.008,5.065,4.39h-.125a.39.39,0,0,0-.39.39v1.562a.39.39,0,0,0,.39.39H40.4a.39.39,0,0,0,.39-.39V37.474a.39.39,0,0,0-.39-.39v-.619l.209-.209a1.939,1.939,0,0,0,.572-1.38V32.483l1.415-3.114a1.166,1.166,0,0,0,.038-.875h2.842a1.173,1.173,0,0,0,1.171-1.171v-.781a.39.39,0,0,0-.39-.39H44.693v-.39a8.208,8.208,0,0,0-8.2-8.2v-.781h.39a.39.39,0,0,0,0-.781H33.761a.39.39,0,1,0,0,.781h.39v.781a8.208,8.208,0,0,0-8.2,8.2v.39H24.39a.39.39,0,0,0-.39.39v.781A1.173,1.173,0,0,0,25.171,28.494Zm2.815.249a.382.382,0,0,1,.364-.249h.223a.391.391,0,0,1,.355.229l.294.646h0l.658,1.447-1.794-1.644a.382.382,0,0,1-.1-.429Zm12.021,9.9H36.1v-.781h3.9Zm1.849-9.972a.384.384,0,0,1,.027.373l-1.45,3.191a.391.391,0,0,0-.035.162v2.477a1.164,1.164,0,0,1-.343.828l-.323.323a.39.39,0,0,0-.114.276v.781H37.03l-5.682-4.924-1.415-3.113a.39.39,0,0,1,.356-.552h.257a.388.388,0,0,1,.349.216L32.24,31.4a.39.39,0,0,0,.2.188l3.9,1.562a.39.39,0,0,0,.24.016l1.562-.39a.39.39,0,0,0,.248-.192L40.519,28.7a.39.39,0,0,1,.343-.2h.666a.384.384,0,0,1,.328.179Zm-10.2-.179H39.74l-1.946,3.567-1.273.318-3.649-1.46Zm3.273-11.713h.781v.781h-.781Zm-8.2,8.98a7.427,7.427,0,0,1,7.418-7.418h2.343a7.427,7.427,0,0,1,7.418,7.418v.39H26.733Zm-1.952,1.171H45.864v.39a.391.391,0,0,1-.39.39h-20.3a.391.391,0,0,1-.39-.39Z" transform="translate(-24 -16)" fill="#000"/>
</svg>
