<svg xmlns="http://www.w3.org/2000/svg" width="22.187" height="20.318" viewBox="0 0 22.187 20.318">
  <path id="Tracé_16779" data-name="Tracé 16779" d="M2968.313-344.011l-9.7-7.276a1.214,1.214,0,0,0-1.446-.012l-10.048,7.276a1.215,1.215,0,0,0-.444,1.363,1.214,1.214,0,0,0,1.159.843h1.412v9.385a1.22,1.22,0,0,0,1.219,1.219h14.451a1.22,1.22,0,0,0,1.219-1.219v-9.385h1.449a1.217,1.217,0,0,0,1.156-.833A1.218,1.218,0,0,0,2968.313-344.011Zm-11.858,11.227a.033.033,0,0,1-.033-.033v-3.861a.033.033,0,0,1,.033-.033h2.5a.034.034,0,0,1,.033.033v3.861a.034.034,0,0,1-.033.033Zm9.325-10.6a1.22,1.22,0,0,0-1.219,1.219v9.385h-4c0-.011,0-.022,0-.033v-3.861a1.606,1.606,0,0,0-1.6-1.6h-2.5a1.606,1.606,0,0,0-1.6,1.6v3.861c0,.011,0,.022,0,.033h-4.038v-9.385a1.22,1.22,0,0,0-1.219-1.219h-.677l8.957-6.486,8.648,6.486Z" transform="translate(-2946.614 351.531)" fill="#000"/>
</svg>
