<svg xmlns="http://www.w3.org/2000/svg" xmlns:xlink="http://www.w3.org/1999/xlink" width="91.533" height="91.533" viewBox="0 0 91.533 91.533">
  <defs>
    <filter id="Tracé_16690" x="0" y="0" width="91.533" height="91.533" filterUnits="userSpaceOnUse">
      <feOffset dy="8" input="SourceAlpha"/>
      <feGaussianBlur stdDeviation="4" result="blur"/>
      <feFlood flood-opacity="0.161"/>
      <feComposite operator="in" in2="blur"/>
      <feComposite in="SourceGraphic"/>
    </filter>
    <linearGradient id="linear-gradient" x1="0.853" y1="0.167" x2="0.397" y2="0.752" gradientUnits="objectBoundingBox">
      <stop offset="0" stop-color="#dd194a"/>
      <stop offset="0.407" stop-color="#db1849"/>
      <stop offset="0.553" stop-color="#d41846"/>
      <stop offset="0.658" stop-color="#c81742"/>
      <stop offset="0.742" stop-color="#b7163c"/>
      <stop offset="0.814" stop-color="#a11535"/>
      <stop offset="0.878" stop-color="#86132b"/>
      <stop offset="0.936" stop-color="#661120"/>
      <stop offset="0.988" stop-color="#410f13"/>
      <stop offset="1" stop-color="#380f10"/>
    </linearGradient>
  </defs>
  <g id="Groupe_140" data-name="Groupe 140" transform="translate(-235.131 -190.729)">
    <g transform="matrix(1, 0, 0, 1, 235.13, 190.73)" filter="url(#Tracé_16690)">
      <path id="Tracé_16690-2" data-name="Tracé 16690" d="M33.766,0A33.766,33.766,0,1,1,0,33.766,33.766,33.766,0,0,1,33.766,0Z" transform="translate(12 4)" fill="#000"/>
    </g>
    <path id="Tracé_16686" data-name="Tracé 16686" d="M314.872,237.98a22.219,22.219,0,1,0-27.714,21.532h0l4.811,7.892a.5.5,0,0,0,.846.02l5.345-7.912h-.005A22.227,22.227,0,0,0,314.872,237.98Z" transform="translate(-11.914 -10.753)" fill="#fff"/>
    <path id="Tracé_16687" data-name="Tracé 16687" d="M295.81,276.545c-.172,0-4.873-1.545-3.551-8.28,1.306-6.657-6.2-4.507-5.634.564.311,2.8,1.062,2.669,2.785,3.87S295.81,276.545,295.81,276.545Z" transform="translate(-20.174 -35.458)" fill="url(#linear-gradient)"/>
    <path id="Tracé_16688" data-name="Tracé 16688" d="M292.491,275.887a5.639,5.639,0,0,1-.967-5.562,6.521,6.521,0,0,0-.794,4.2Z" transform="translate(-22.257 -38.646)" fill="#4c121f"/>
    <path id="Tracé_16689" data-name="Tracé 16689" d="M314.31,270.382a.261.261,0,0,1,.445.263,16.452,16.452,0,0,1-5.608,7.013,17.933,17.933,0,0,1-20.8.05,16.426,16.426,0,0,1-5.644-7,.261.261,0,0,1,.443-.265,21.346,21.346,0,0,0,6.385,5.392,19.072,19.072,0,0,0,18.426-.039A21.282,21.282,0,0,0,314.31,270.382Z" transform="translate(-18.175 -38.624)" fill="#000"/>
  </g>
</svg>
