<svg xmlns="http://www.w3.org/2000/svg" width="23" height="26.854" viewBox="0 0 23 26.854">
  <g id="Groupe_217" data-name="Groupe 217" transform="translate(286.504 -947.485)">
    <path id="Tracé_16797" data-name="Tracé 16797" d="M-263.5,958.985a11.5,11.5,0,0,0-12.339-11.47,11.534,11.534,0,0,0-10.638,10.731,11.5,11.5,0,0,0,8.632,11.884h0l2.49,4.085a.26.26,0,0,0,.438.01l2.766-4.1h0A11.5,11.5,0,0,0-263.5,958.985Z" transform="translate(0 0)" fill="#ff6761"/>
    <path id="Tracé_16798" data-name="Tracé 16798" d="M-261.592,984.419a.135.135,0,0,1,.23.136,8.516,8.516,0,0,1-2.9,3.63,9.241,9.241,0,0,1-5.378,1.733,9.241,9.241,0,0,1-5.387-1.707,8.5,8.5,0,0,1-2.921-3.622.135.135,0,0,1,.229-.137,11.048,11.048,0,0,0,3.3,2.791,9.933,9.933,0,0,0,4.771,1.218,9.883,9.883,0,0,0,4.766-1.238A11.007,11.007,0,0,0-261.592,984.419Z" transform="translate(-5.347 -23.089)" fill="#fff"/>
    <path id="Tracé_16799" data-name="Tracé 16799" d="M-272.3,986.554a2.987,2.987,0,0,1-.058-2.158,3.31,3.31,0,0,0-.441,1.775Q-272.554,986.37-272.3,986.554Z" transform="translate(-8.579 -23.107)" fill="#611b2a"/>
    <path id="Tracé_16800" data-name="Tracé 16800" d="M-272.911,984.62c.12.066.244.125.366.186a4.734,4.734,0,0,1-.081-2.466c.673-3.427-3.164-2.344-2.919.25A10.775,10.775,0,0,0-272.911,984.62Z" transform="translate(-6.853 -20.467)" fill="#fff"/>
    <path id="Tracé_16801" data-name="Tracé 16801" d="M-272.3,986.554a2.987,2.987,0,0,1-.058-2.158,3.31,3.31,0,0,0-.441,1.775Q-272.554,986.37-272.3,986.554Z" transform="translate(-8.579 -23.107)" fill="#000000"/>
  </g>
</svg>
