<svg xmlns="http://www.w3.org/2000/svg" width="27.1" height="27.1" viewBox="0 0 27.1 27.1">
  <g id="dollar-tag" transform="translate(-59.726 -77.287) rotate(45)">
    <g id="Groupe_4" data-name="Groupe 4" transform="translate(109.301)">
      <g id="Groupe_3" data-name="Groupe 3" transform="translate(0)">
        <path id="Tracé_2" data-name="Tracé 2" d="M122.329,8.414,118.913,4.1a3.677,3.677,0,0,0-2.346-1.349V.519a.519.519,0,0,0-1.038,0V2.746A3.609,3.609,0,0,0,113.189,4.1l-3.426,4.324a2.163,2.163,0,0,0-.462,1.329V22.718a2.127,2.127,0,0,0,2.133,2.118h9.213a2.127,2.127,0,0,0,2.144-2.107V9.747A2.189,2.189,0,0,0,122.329,8.414Zm-6.28-.607a1.51,1.51,0,1,1-1.51,1.51A1.508,1.508,0,0,1,116.048,7.806Zm5.709,14.912a1.088,1.088,0,0,1-1.106,1.08h-9.208a1.088,1.088,0,0,1-1.106-1.08V9.747a1.089,1.089,0,0,1,.239-.685L114,4.739a2.6,2.6,0,0,1,1.531-.939V6.82a2.55,2.55,0,1,0,1.038,0V3.8a2.623,2.623,0,0,1,.618.208,2.588,2.588,0,0,1,.908.732l3.426,4.318a1.114,1.114,0,0,1,.239.69Z" transform="translate(-109.301)" fill="#000"/>
      </g>
    </g>
    <g id="Groupe_6" data-name="Groupe 6" transform="translate(114.313 14.616)">
      <g id="Groupe_5" data-name="Groupe 5" transform="translate(0)">
        <path id="Tracé_3" data-name="Tracé 3" d="M209.262,285.913a1.738,1.738,0,0,0-1.656-1.215.7.7,0,1,1,.7-.7.519.519,0,1,0,1.038,0,1.738,1.738,0,0,0-1.215-1.656v-.228a.519.519,0,1,0-1.038,0v.228a1.734,1.734,0,0,0,.519,3.389.7.7,0,1,1-.7.7.519.519,0,1,0-1.038,0,1.738,1.738,0,0,0,1.215,1.656v.26a.519.519,0,0,0,1.038,0v-.26A1.737,1.737,0,0,0,209.262,285.913Z" transform="translate(-205.871 -281.6)" fill="#000"/>
      </g>
    </g>
  </g>
</svg>
