<svg xmlns="http://www.w3.org/2000/svg" width="325" height="62" viewBox="0 0 325 62">
  <g id="Rating" transform="translate(-1989 -2077)">
    <path id="Soustraction_2" data-name="Soustraction 2" d="M325.5,62H.5V0h325V62Zm-33-11.861a2,2,0,0,1,1.039.29l14.978,9.1a1.97,1.97,0,0,0,1.036.3,2.039,2.039,0,0,0,1.579-.774,1.95,1.95,0,0,0,.37-1.688l-4-17.116a2,2,0,0,1,.638-1.967l13.274-11.491a2,2,0,0,0-1.141-3.5l-17.463-1.471a1.992,1.992,0,0,1-1.677-1.22L294.344,4.4a2,2,0,0,0-3.689,0l-6.786,16.192a1.992,1.992,0,0,1-1.677,1.22L264.73,23.284a2,2,0,0,0-1.141,3.5L276.863,38.28a2,2,0,0,1,.638,1.967l-4,17.116a1.95,1.95,0,0,0,.37,1.688,2.037,2.037,0,0,0,1.579.773,1.973,1.973,0,0,0,1.036-.3l14.978-9.1A2,2,0,0,1,292.5,50.14Zm-65,0a2,2,0,0,1,1.038.29l14.978,9.1a1.971,1.971,0,0,0,1.036.3,2.04,2.04,0,0,0,1.58-.774,1.95,1.95,0,0,0,.37-1.687l-4-17.116a2,2,0,0,1,.638-1.967l13.274-11.491a2,2,0,0,0-1.141-3.5l-17.463-1.471a1.992,1.992,0,0,1-1.677-1.22L229.344,4.4a2,2,0,0,0-3.689,0l-6.787,16.192a1.992,1.992,0,0,1-1.677,1.22L199.73,23.284a2,2,0,0,0-1.141,3.5L211.863,38.28a2,2,0,0,1,.638,1.967l-4,17.116a1.949,1.949,0,0,0,.37,1.688,2.037,2.037,0,0,0,1.58.773,1.973,1.973,0,0,0,1.036-.3l14.978-9.1A2,2,0,0,1,227.5,50.14Zm-65,0a2,2,0,0,1,1.038.29l14.978,9.1a1.97,1.97,0,0,0,1.036.3,2.04,2.04,0,0,0,1.58-.774,1.95,1.95,0,0,0,.37-1.687l-4-17.116a2,2,0,0,1,.639-1.967l13.273-11.491a2,2,0,0,0-1.141-3.5l-17.462-1.471a1.992,1.992,0,0,1-1.677-1.22L164.345,4.4a2,2,0,0,0-3.689,0l-6.787,16.192a1.992,1.992,0,0,1-1.677,1.22L134.73,23.284a2,2,0,0,0-1.141,3.5L146.862,38.28a1.994,1.994,0,0,1,.639,1.967l-4,17.116a1.95,1.95,0,0,0,.37,1.688,2.038,2.038,0,0,0,1.58.773,1.973,1.973,0,0,0,1.036-.3l14.978-9.1A2,2,0,0,1,162.5,50.14Zm-65,0a2,2,0,0,1,1.038.29l14.978,9.1a1.97,1.97,0,0,0,1.036.3,2.039,2.039,0,0,0,1.58-.774,1.949,1.949,0,0,0,.369-1.687l-4-17.116a1.994,1.994,0,0,1,.639-1.967l13.273-11.491a2,2,0,0,0-1.141-3.5l-17.462-1.471a1.992,1.992,0,0,1-1.677-1.22L99.345,4.4a2,2,0,0,0-3.689,0L88.869,20.593a1.992,1.992,0,0,1-1.677,1.22L69.729,23.284a2,2,0,0,0-1.141,3.5L81.862,38.28a2,2,0,0,1,.638,1.967l-4,17.116a1.95,1.95,0,0,0,.37,1.688,2.038,2.038,0,0,0,1.58.773,1.973,1.973,0,0,0,1.036-.3l14.978-9.1A2,2,0,0,1,97.5,50.14Zm-65,0a2,2,0,0,1,1.039.29l14.978,9.1a1.97,1.97,0,0,0,1.036.3,2.039,2.039,0,0,0,1.58-.774,1.949,1.949,0,0,0,.369-1.687l-4-17.116a2,2,0,0,1,.638-1.967L61.412,26.789a2,2,0,0,0-1.141-3.5L42.808,21.812a1.991,1.991,0,0,1-1.676-1.22L34.345,4.4a2,2,0,0,0-3.689,0L23.869,20.593a1.992,1.992,0,0,1-1.677,1.22L4.73,23.284a2,2,0,0,0-1.141,3.5L16.862,38.28a2,2,0,0,1,.638,1.967l-4,17.116a1.95,1.95,0,0,0,.37,1.688,2.037,2.037,0,0,0,1.58.773,1.974,1.974,0,0,0,1.036-.3l14.977-9.1A2,2,0,0,1,32.5,50.14Z" transform="translate(1988.5 2078)" fill="#fff"/>
  </g>
</svg>
