<svg xmlns="http://www.w3.org/2000/svg" width="325" height="62.001" viewBox="0 0 325 62.001">
  <g id="Rating" transform="translate(-1989 -2078)">
    <path id="Soustraction_2" data-name="Soustraction 2" d="M325.5,62H.5V0h325V62Zm-33-60.414a.985.985,0,0,0-.923.614l-7.943,18.951a1,1,0,0,1-.838.61l-20.432,1.721a1,1,0,0,0-.571,1.752l15.525,13.441a1,1,0,0,1,.319.984l-4.682,20.022a.975.975,0,0,0,.185.844,1.019,1.019,0,0,0,.79.387.982.982,0,0,0,.518-.148l17.532-10.649a1,1,0,0,1,1.039,0l17.532,10.648a.985.985,0,0,0,.518.149,1.018,1.018,0,0,0,.789-.386.974.974,0,0,0,.184-.844l-4.682-20.022a1,1,0,0,1,.32-.984l15.524-13.441a1,1,0,0,0-.57-1.752L302.2,21.762a1,1,0,0,1-.838-.61L293.423,2.2A.985.985,0,0,0,292.5,1.587Zm-65,0a.985.985,0,0,0-.922.614l-7.943,18.951a1,1,0,0,1-.838.61l-20.432,1.721a1,1,0,0,0-.571,1.752l15.525,13.441a1,1,0,0,1,.32.984l-4.683,20.022a.977.977,0,0,0,.185.845,1.018,1.018,0,0,0,.789.386,1,1,0,0,0,.518-.148l17.532-10.649a1,1,0,0,1,1.039,0l17.532,10.648a.985.985,0,0,0,.518.149,1.017,1.017,0,0,0,.789-.386.976.976,0,0,0,.185-.845l-4.682-20.022a1,1,0,0,1,.319-.984l15.525-13.441a1,1,0,0,0-.571-1.752L237.2,21.762a1,1,0,0,1-.838-.61L228.423,2.2A.985.985,0,0,0,227.5,1.587Zm-65,0a.985.985,0,0,0-.922.614l-7.943,18.951a1,1,0,0,1-.839.61l-20.431,1.721a1,1,0,0,0-.571,1.752l15.525,13.441a1,1,0,0,1,.32.984l-4.683,20.022a.976.976,0,0,0,.185.845,1.018,1.018,0,0,0,.789.386,1,1,0,0,0,.518-.148l17.532-10.649a1,1,0,0,1,1.038,0l17.532,10.648a.987.987,0,0,0,.519.149,1.018,1.018,0,0,0,.789-.386.976.976,0,0,0,.185-.845l-4.682-20.022a1,1,0,0,1,.319-.984l15.525-13.441a1,1,0,0,0-.571-1.752L172.2,21.762a1,1,0,0,1-.839-.61L163.422,2.2A.985.985,0,0,0,162.5,1.587Zm-65,0a.985.985,0,0,0-.922.614L88.635,21.152a1,1,0,0,1-.839.61L67.365,23.483a1,1,0,0,0-.571,1.752L82.319,38.676a1,1,0,0,1,.319.984L77.956,59.682a.976.976,0,0,0,.185.845,1.018,1.018,0,0,0,.789.386,1,1,0,0,0,.518-.148L96.981,50.116a1,1,0,0,1,1.038,0l17.532,10.648a.987.987,0,0,0,.519.149,1.018,1.018,0,0,0,.789-.386.976.976,0,0,0,.185-.845l-4.683-20.022a1,1,0,0,1,.32-.984l15.525-13.441a1,1,0,0,0-.571-1.752L107.2,21.762a1,1,0,0,1-.839-.61L98.422,2.2A.985.985,0,0,0,97.5,1.587Zm-65,0a.985.985,0,0,0-.923.614L23.634,21.152a1,1,0,0,1-.838.61L2.365,23.483a1,1,0,0,0-.571,1.752L17.319,38.676a1,1,0,0,1,.319.984L12.956,59.682a.975.975,0,0,0,.185.844,1.019,1.019,0,0,0,.79.387.982.982,0,0,0,.517-.148L31.981,50.116a1,1,0,0,1,1.039,0L50.551,60.764a.985.985,0,0,0,.518.149,1.018,1.018,0,0,0,.789-.386.975.975,0,0,0,.185-.844L47.362,39.659a1,1,0,0,1,.319-.984L63.206,25.235a1,1,0,0,0-.571-1.752L42.2,21.762a1,1,0,0,1-.838-.61L33.422,2.2A.985.985,0,0,0,32.5,1.587Z" transform="translate(1988.5 2078)" fill="#fff"/>
  </g>
</svg>
