<?xml version="1.0"?>
<svg xmlns="http://www.w3.org/2000/svg" width="50" height="50" viewBox="0 0 50 50">
    <path style="text-indent:0;text-align:start;line-height:normal;text-transform:none;block-progression:tb;-inkscape-font-specification:Bitstream Vera Sans" d="M 24.375 4 C 22.470785 4 20.701058 5.4150791 19.9375 7.375 L 19.3125 9 L 14 9 L 14 8 A 1.0001 1.0001 0 0 0 13 7 L 6 7 A 1.0001 1.0001 0 0 0 5 8 L 5 9.40625 C 2.1363382 10.284835 0 12.858716 0 16 L 0 37 C 0 40.854334 3.1456661 44 7 44 L 43 44 C 46.854334 44 50 40.854334 50 37 L 50 16 C 50 12.145666 46.854334 9 43 9 L 40.6875 9 L 40.0625 7.375 C 39.299987 5.4146039 37.529788 4 35.625 4 L 24.375 4 z M 24.375 6 L 35.625 6 C 36.390212 6 37.710013 6.8661461 38.1875 8.09375 L 39.0625 10.375 A 1.0001 1.0001 0 0 0 40 11 L 43 11 C 45.773666 11 48 13.226334 48 16 L 48 37 C 48 39.773666 45.773666 42 43 42 L 7 42 C 4.2263339 42 2 39.773666 2 37 L 2 16 C 2 13.513195 3.791916 11.460028 6.15625 11.0625 A 1.0001 1.0001 0 0 0 7 10.09375 L 7 9 L 12 9 L 12 10 A 1.0001 1.0001 0 0 0 13 11 L 20 11 A 1.0001 1.0001 0 0 0 20.9375 10.375 L 21.8125 8.09375 C 22.290942 6.8656709 23.611215 6 24.375 6 z M 30 13 C 22.834119 13 17 18.834119 17 26 C 17 33.165881 22.834119 39 30 39 C 37.165881 39 43 33.165881 43 26 C 43 18.834119 37.165881 13 30 13 z M 7 14 C 5.8954305 14 5 14.895431 5 16 C 5 17.104569 5.8954305 18 7 18 C 8.1045695 18 9 17.104569 9 16 C 9 14.895431 8.1045695 14 7 14 z M 30 15 C 36.084119 15 41 19.915881 41 26 C 41 32.084119 36.084119 37 30 37 C 23.915881 37 19 32.084119 19 26 C 19 19.915881 23.915881 15 30 15 z" overflow="visible" enable-background="accumulate" font-family="Bitstream Vera Sans"/>
</svg>
