<?xml version="1.0"?>
<svg xmlns="http://www.w3.org/2000/svg" viewBox="0 0 50 50">
    <path style="text-indent:0;text-align:start;line-height:normal;text-transform:none;block-progression:tb;-inkscape-font-specification:Bitstream Vera Sans" d="M 25 1 C 21.434166 1 18.433873 3.3607823 17.40625 6.59375 C 16.245515 5.9831796 14.968394 5.6874962 13.6875 5.6875 C 11.63807 5.6875061 9.5888296 6.4731005 8.03125 8.03125 C 5.499257 10.562317 5.0113149 14.387961 6.59375 17.40625 C 3.3607823 18.433873 1 21.434166 1 25 C 1 28.569549 3.3555803 31.600493 6.59375 32.625 C 5.0273054 35.63933 5.5063789 39.444803 8.03125 41.96875 C 10.555197 44.493621 14.36067 44.972694 17.375 43.40625 C 18.399507 46.64442 21.430451 49 25 49 C 28.569549 49 31.600493 46.64442 32.625 43.40625 C 35.63933 44.972694 39.444803 44.493621 41.96875 41.96875 C 44.500743 39.437683 44.988685 35.612039 43.40625 32.59375 C 46.639218 31.566127 49 28.565834 49 25 C 49 21.434166 46.639218 18.433873 43.40625 17.40625 C 43.410701 17.39776 43.401832 17.383503 43.40625 17.375 C 44.972694 14.36067 44.493621 10.555197 41.96875 8.03125 C 40.41117 6.4731005 38.36193 5.6875061 36.3125 5.6875 C 35.040974 5.6874962 33.778981 5.9920539 32.625 6.59375 C 32.623934 6.5903795 32.594821 6.5971186 32.59375 6.59375 C 31.566127 3.3607823 28.565834 1 25 1 z M 25 3 C 27.92054 3 30.329254 5.0576019 30.875 7.8125 C 30.799222 7.8826857 30.729888 7.9576125 30.65625 8.03125 L 26.40625 12.28125 C 25.838945 12.848347 25.360745 13.482557 25 14.15625 C 24.639259 13.482449 24.161017 12.848517 23.59375 12.28125 L 19.34375 8.03125 C 19.270112 7.9576125 19.200778 7.8826857 19.125 7.8125 C 19.670746 5.0576019 22.07946 3 25 3 z M 13.6875 7.6875 C 14.83749 7.6875046 15.998691 7.9986952 17 8.65625 C 16.995041 8.7714097 17 8.8836557 17 9 L 17 15 C 17 15.826207 17.140657 16.624278 17.375 17.375 C 16.624278 17.140657 15.826207 17 15 17 L 9 17 C 8.8836557 17 8.7714097 16.995041 8.65625 17 C 7.1128459 14.665446 7.3797617 11.494486 9.4375 9.4375 C 10.61292 8.2616495 12.15418 7.6874939 13.6875 7.6875 z M 36.3125 7.6875 C 37.84582 7.6874939 39.38708 8.2616495 40.5625 9.4375 C 42.620238 11.494486 42.887154 14.665446 41.34375 17 C 41.22859 16.995041 41.116344 17 41 17 L 35 17 C 34.173793 17 33.375722 17.140657 32.625 17.375 C 32.859343 16.624278 33 15.826207 33 15 L 33 9 C 33 8.8836557 33.004959 8.7714097 33 8.65625 C 34.001309 7.9986952 35.16251 7.6875046 36.3125 7.6875 z M 19 10.5 L 22.1875 13.6875 C 24.098428 15.598428 24.444269 18.458327 23.25 20.71875 C 20.789059 19.97076 19 17.712739 19 15 L 19 10.5 z M 31 10.5 L 31 15 C 31 17.712739 29.210941 19.97076 26.75 20.71875 C 25.555716 18.450047 25.901743 15.597558 27.8125 13.6875 L 31 10.5 z M 10.5 19 L 15 19 C 17.712739 19 19.97076 20.789059 20.71875 23.25 C 18.450047 24.444284 15.597558 24.098257 13.6875 22.1875 L 10.5 19 z M 35 19 L 39.5 19 L 36.3125 22.1875 C 34.401572 24.098428 31.541673 24.444269 29.28125 23.25 C 30.02924 20.789059 32.287261 19 35 19 z M 7.78125 19.125 C 7.7912994 19.122956 7.8024321 19.126994 7.8125 19.125 C 7.8826574 19.20078 7.9576125 19.270112 8.03125 19.34375 L 12.28125 23.59375 C 12.848347 24.161055 13.482557 24.639255 14.15625 25 C 13.482533 25.361859 12.848517 25.838983 12.28125 26.40625 L 8.03125 30.65625 C 7.9576125 30.729888 7.8826574 30.79922 7.8125 30.875 C 5.0576019 30.329254 3 27.92054 3 25 C 3 22.090133 5.0414791 19.682371 7.78125 19.125 z M 42.1875 19.125 C 44.942398 19.670746 47 22.07946 47 25 C 47 27.92054 44.942398 30.329254 42.1875 30.875 C 42.117343 30.79922 42.042388 30.729888 41.96875 30.65625 L 37.71875 26.40625 C 37.151653 25.838945 36.517477 25.361855 35.84375 25 C 36.517551 24.639259 37.151483 24.161017 37.71875 23.59375 L 41.96875 19.34375 C 42.042388 19.270112 42.117343 19.20078 42.1875 19.125 z M 24.1875 22.96875 C 24.455873 22.996146 24.724598 23 25 23 C 25.275402 23 25.544127 22.996146 25.8125 22.96875 C 25.990737 23.189966 26.200967 23.388467 26.40625 23.59375 C 26.611472 23.799047 26.810087 24.009254 27.03125 24.1875 C 27.003854 24.455873 27 24.724598 27 25 C 27 25.275402 27.003854 25.544127 27.03125 25.8125 C 26.81005 25.990937 26.611533 26.200967 26.40625 26.40625 C 26.200953 26.611472 25.990746 26.810087 25.8125 27.03125 C 25.544127 27.003854 25.275402 27 25 27 C 24.724598 27 24.455873 27.003854 24.1875 27.03125 C 24.009263 26.810034 23.799033 26.611533 23.59375 26.40625 C 23.388528 26.200953 23.189918 25.990944 22.96875 25.8125 C 22.996146 25.544127 23 25.275402 23 25 C 23 24.724598 22.996146 24.455873 22.96875 24.1875 C 23.189966 24.009263 23.388467 23.799033 23.59375 23.59375 C 23.799047 23.388528 24.009254 23.189913 24.1875 22.96875 z M 17.9375 26.0625 C 18.895825 26.062496 19.854632 26.294718 20.71875 26.75 C 19.97076 29.210941 17.712739 31 15 31 L 10.5 31 L 13.6875 27.8125 C 14.863455 26.636545 16.40418 26.062506 17.9375 26.0625 z M 32.0625 26.0625 C 33.59582 26.062494 35.13708 26.63665 36.3125 27.8125 L 39.5 31 L 35 31 C 32.287261 31 30.02924 29.210941 29.28125 26.75 C 30.154497 26.294726 31.104175 26.062504 32.0625 26.0625 z M 23.21875 29.28125 C 23.228454 29.278246 23.240275 29.284206 23.25 29.28125 C 24.444284 31.549953 24.098257 34.402442 22.1875 36.3125 L 19 39.5 L 19 35 C 19 32.297981 20.772915 30.038323 23.21875 29.28125 z M 26.75 29.28125 C 29.210941 30.02924 31 32.287261 31 35 L 31 39.5 L 27.8125 36.3125 C 25.901572 34.401572 25.555731 31.541673 26.75 29.28125 z M 17.375 32.625 C 17.140657 33.375722 17 34.173793 17 35 L 17 41 C 17 41.116344 16.995041 41.22859 17 41.34375 C 14.665446 42.887154 11.494486 42.620238 9.4375 40.5625 C 7.3797617 38.505514 7.1128459 35.334554 8.65625 33 C 8.7714097 33.004959 8.8836557 33 9 33 L 15 33 C 15.826207 33 16.624278 32.859343 17.375 32.625 z M 32.625 32.625 C 33.375722 32.859343 34.173793 33 35 33 L 41 33 C 41.116344 33 41.22859 33.004959 41.34375 33 C 42.887154 35.334554 42.620238 38.505514 40.5625 40.5625 C 38.505514 42.620238 35.334554 42.887154 33 41.34375 C 33.004959 41.22859 33 41.116344 33 41 L 33 35 C 33 34.173793 32.859343 33.375722 32.625 32.625 z M 25 35.84375 C 25.360741 36.517551 25.838983 37.151483 26.40625 37.71875 L 30.65625 41.96875 C 30.729888 42.042388 30.79922 42.117343 30.875 42.1875 C 30.329254 44.942398 27.92054 47 25 47 C 22.07946 47 19.670746 44.942398 19.125 42.1875 C 19.20078 42.117343 19.270112 42.042388 19.34375 41.96875 L 23.59375 37.71875 C 24.161055 37.151653 24.639255 36.517443 25 35.84375 z" overflow="visible" font-family="Bitstream Vera Sans"/>
</svg>
