<svg id="Groupe_165" data-name="Groupe 165" xmlns="http://www.w3.org/2000/svg" width="17.138" height="19.144" viewBox="0 0 17.138 19.144">
  <path id="Tracé_16732" data-name="Tracé 16732" d="M2475.737-831.981h-15.68a.729.729,0,0,1-.729-.729,8.579,8.579,0,0,1,8.569-8.569,8.579,8.579,0,0,1,8.569,8.569A.729.729,0,0,1,2475.737-831.981Zm-14.914-1.459h14.147a7.121,7.121,0,0,0-7.074-6.381A7.121,7.121,0,0,0,2460.823-833.439Z" transform="translate(-2459.328 851.125)" fill="#000"/>
  <path id="Tracé_16733" data-name="Tracé 16733" d="M2482.96-878.98a4.563,4.563,0,0,1-4.558-4.558,4.563,4.563,0,0,1,4.558-4.558,4.563,4.563,0,0,1,4.558,4.558A4.563,4.563,0,0,1,2482.96-878.98Zm0-7.658a3.1,3.1,0,0,0-3.1,3.1,3.1,3.1,0,0,0,3.1,3.1,3.1,3.1,0,0,0,3.1-3.1A3.1,3.1,0,0,0,2482.96-886.637Z" transform="translate(-2474.391 888.096)" fill="#000"/>
</svg>
