<svg id="gluten-free" xmlns="http://www.w3.org/2000/svg" width="23.921" height="23.921" viewBox="0 0 23.921 23.921">
  <path id="Tracé_9" data-name="Tracé 9" d="M4.257,329.777a4.257,4.257,0,1,0,4.257,4.256A4.261,4.261,0,0,0,4.257,329.777Zm0,7.579a3.322,3.322,0,1,1,3.323-3.323A3.326,3.326,0,0,1,4.257,337.356Z" transform="translate(-0.001 -314.37)" fill="#000"/>
  <path id="Tracé_10" data-name="Tracé 10" d="M54.888,381.22a.467.467,0,0,0-.661,0l-1.062,1.062L52.1,381.22a.467.467,0,0,0-.661.661l1.062,1.062L51.442,384a.467.467,0,1,0,.661.661l1.062-1.062,1.062,1.062a.467.467,0,0,0,.661-.661l-1.062-1.062,1.062-1.062A.467.467,0,0,0,54.888,381.22Z" transform="translate(-48.908 -363.279)" fill="#000"/>
  <path id="Tracé_11" data-name="Tracé 11" d="M31.774,16.288a5.6,5.6,0,0,0,1.4-4.083,5.768,5.768,0,0,0-2.146-4.02.467.467,0,0,0-.612.014q-.078.07-.152.142a5.957,5.957,0,0,0-1.928-2.848.467.467,0,0,0-.612.014q-.078.07-.152.142A5.957,5.957,0,0,0,25.641,2.8a.467.467,0,0,0-.612.014q-.078.07-.152.142A5.954,5.954,0,0,0,22.947.107a.467.467,0,0,0-.612.014,6.082,6.082,0,0,0-1.541,2.158A6.466,6.466,0,0,0,15.948.69a.467.467,0,0,0-.433.433A6.466,6.466,0,0,0,17.1,5.969a6.078,6.078,0,0,0-2.159,1.542.467.467,0,0,0-.013.612,5.955,5.955,0,0,0,2.848,1.929q-.072.074-.142.152a.467.467,0,0,0-.013.612,5.955,5.955,0,0,0,2.848,1.929q-.072.074-.142.152a.467.467,0,0,0-.014.612,5.955,5.955,0,0,0,2.848,1.929q-.072.074-.142.152a.467.467,0,0,0-.014.612,5.765,5.765,0,0,0,4.018,2.147q.2.014.394.014a5.639,5.639,0,0,0,3.692-1.412l1.744,1.744a.467.467,0,0,0,.661-.661Zm-3.725-9.8A4.844,4.844,0,0,1,29.5,9.219a5.556,5.556,0,0,0-1.035,3.765l-1.4-1.4a4.626,4.626,0,0,1,.978-5.094ZM25.357,3.8a4.844,4.844,0,0,1,1.456,2.728,5.555,5.555,0,0,0-1.035,3.765l-1.4-1.4A4.624,4.624,0,0,1,25.357,3.8ZM22.663,1.106A4.841,4.841,0,0,1,24.12,3.834,5.554,5.554,0,0,0,23.084,7.6l-1.4-1.4a4.624,4.624,0,0,1,.977-5.095Zm-6.232.5h.035a5.413,5.413,0,0,1,4.016,1.676,5.372,5.372,0,0,0,.049,2.424,5.376,5.376,0,0,0-2.423-.049,5.417,5.417,0,0,1-1.677-4.051Zm-.5,6.233a4.625,4.625,0,0,1,5.095-.978l1.4,1.4A5.554,5.554,0,0,0,18.658,9.3a4.835,4.835,0,0,1-2.727-1.456Zm2.692,2.692a4.625,4.625,0,0,1,5.095-.978l1.4,1.4a5.556,5.556,0,0,0-3.766,1.035,4.836,4.836,0,0,1-2.728-1.456Zm2.692,2.692a4.626,4.626,0,0,1,5.095-.978l1.4,1.4a5.555,5.555,0,0,0-3.766,1.035A4.835,4.835,0,0,1,21.316,13.224Zm5.78,4.191a4.769,4.769,0,0,1-3.087-1.5,4.626,4.626,0,0,1,5.095-.978l1.347,1.347A4.671,4.671,0,0,1,27.1,17.415Zm4.015-1.79-1.347-1.347a4.627,4.627,0,0,1,.978-5.095,4.771,4.771,0,0,1,1.5,3.089,4.669,4.669,0,0,1-1.129,3.352Z" transform="translate(-14.132 0)" fill="#000"/>
  <path id="Tracé_12" data-name="Tracé 12" d="M463.533,448.074l-1.434-1.433a.467.467,0,1,0-.66.661l1.434,1.433a.467.467,0,0,0,.66-.661Z" transform="translate(-439.75 -425.644)" fill="#000"/>
  <path id="Tracé_13" data-name="Tracé 13" d="M429.662,414.9a.467.467,0,0,0,0,.661h0a.467.467,0,1,0,0-.662Z" transform="translate(-409.458 -395.381)" fill="#000"/>
</svg>
