<svg xmlns="http://www.w3.org/2000/svg" width="26.792" height="26.792" viewBox="0 0 26.792 26.792">
  <g id="halal" transform="translate(0)">
    <path id="Tracé_14" data-name="Tracé 14" d="M26.639,13.027,23.022,9.41V4.295a.523.523,0,0,0-.523-.523H19.521a.523.523,0,0,0,0,1.047h2.454V9.627a.523.523,0,0,0,.153.37l3.4,3.4-3.4,3.4a.523.523,0,0,0-.153.37v4.809H17.167a.523.523,0,0,0-.37.153l-3.4,3.4-3.4-3.4a.523.523,0,0,0-.37-.153H4.817V17.167a.523.523,0,0,0-.153-.37l-3.4-3.4,3.4-3.4a.523.523,0,0,0,.153-.37V4.818H9.626A.523.523,0,0,0,10,4.665l3.4-3.4L15.132,3a.523.523,0,0,0,.74-.74L13.766.154a.523.523,0,0,0-.74,0L9.409,3.771H4.294a.523.523,0,0,0-.523.523V9.41L.153,13.027a.523.523,0,0,0,0,.74l3.617,3.617V22.5a.523.523,0,0,0,.523.523H9.409l3.617,3.617a.523.523,0,0,0,.74,0l3.617-3.617H22.5a.523.523,0,0,0,.523-.523V17.384l3.617-3.617a.523.523,0,0,0,0-.74Z" transform="translate(0 -0.001)" fill="#000"/>
    <ellipse id="Ellipse_13" data-name="Ellipse 13" cx="0.523" cy="0.523" rx="0.523" ry="0.523" transform="translate(16.643 3.77)" fill="#000"/>
    <path id="Tracé_15" data-name="Tracé 15" d="M111.446,176.89a.523.523,0,0,0-.523.523v.987a1.856,1.856,0,0,0,3.71.094.523.523,0,0,0,.008-.094v-6.084a.523.523,0,1,0-1.047,0v6a.526.526,0,0,0-.006.08.809.809,0,0,1-1.619,0v-.987A.523.523,0,0,0,111.446,176.89Z" transform="translate(-105.119 -162.803)" fill="#000"/>
    <path id="Tracé_16" data-name="Tracé 16" d="M210.145,151.043a.523.523,0,0,0-.523.523v2.784a.523.523,0,0,0,.523.523h7.446a.523.523,0,0,0,.523-.523v-5.568a.523.523,0,0,0-.523-.523H215.2a.523.523,0,1,0,0,1.047h1.866v4.521h-3.936v-8.292a.523.523,0,1,0-1.047,0v3.419l-2.388-2.388a.523.523,0,1,0-.74.74l3.128,3.128v3.393h-1.416v-2.261A.523.523,0,0,0,210.145,151.043Z" transform="translate(-197.877 -137.424)" fill="#000"/>
  </g>
</svg>
