<svg id="Page-1" xmlns="http://www.w3.org/2000/svg" width="21.301" height="21.3" viewBox="0 0 21.301 21.3">
  <g id="_025---Vegan-Burger" data-name="025---Vegan-Burger" transform="translate(0 0)">
    <path id="Shape" d="M7.326,4.025a.355.355,0,0,0-.462.2L5.774,6.949,4.684,4.222a.355.355,0,0,0-.66.264l1.42,3.55a.355.355,0,0,0,.66,0l1.42-3.55a.355.355,0,0,0-.2-.462Z" transform="translate(-2.579 -2.579)" fill="#000"/>
    <path id="Shape-2" data-name="Shape" d="M17.485,4.71a.355.355,0,0,0,0-.71h-2.13A.355.355,0,0,0,15,4.355v3.55a.355.355,0,0,0,.355.355h2.13a.355.355,0,1,0,0-.71H15.71V6.485h1.775a.355.355,0,1,0,0-.71H15.71V4.71Z" transform="translate(-9.675 -2.58)" fill="#000"/>
    <path id="Shape-3" data-name="Shape" d="M28.55,6.13H27.13a.355.355,0,1,0,0,.71h.355a.71.71,0,0,1-.71.71H26.42a.71.71,0,0,1-.71-.71V5.42a.71.71,0,0,1,.71-.71h.355a.7.7,0,0,1,.665.47.355.355,0,0,0,.672-.229A1.41,1.41,0,0,0,26.775,4H26.42A1.42,1.42,0,0,0,25,5.42V6.84a1.42,1.42,0,0,0,1.42,1.42h.355A1.42,1.42,0,0,0,28.2,6.84h.355a.355.355,0,1,0,0-.71Z" transform="translate(-16.125 -2.58)" fill="#000"/>
    <path id="Shape-4" data-name="Shape" d="M38.1,4.222a.355.355,0,0,0-.66,0l-1.42,3.55a.355.355,0,1,0,.66.264l.337-.842h1.507l.337.842a.355.355,0,0,0,.33.223.36.36,0,0,0,.132-.025.355.355,0,0,0,.2-.462Zm-.8,2.262.47-1.174.47,1.174Z" transform="translate(-23.219 -2.579)" fill="#000"/>
    <path id="Shape-5" data-name="Shape" d="M49.84,4a.355.355,0,0,0-.355.355V6.779L47.646,4.152a.355.355,0,0,0-.646.2v3.55a.355.355,0,1,0,.71,0V5.481l1.839,2.627a.355.355,0,0,0,.646-.2V4.355A.355.355,0,0,0,49.84,4Z" transform="translate(-30.315 -2.58)" fill="#000"/>
    <path id="Shape-6" data-name="Shape" d="M20.235,0H1.065A1.065,1.065,0,0,0,0,1.065v4.97A1.065,1.065,0,0,0,1.065,7.1H9.23V8.52H6.745a5.314,5.314,0,0,0-5.309,5.006,1.767,1.767,0,0,0-.513,3.288,3.593,3.593,0,0,0,.5.923v.369a3.2,3.2,0,0,0,3.2,3.2h12.07a3.2,3.2,0,0,0,3.2-3.2v-.367a3.6,3.6,0,0,0,.5-.923,1.767,1.767,0,0,0-.513-3.289A5.327,5.327,0,0,0,14.555,8.52H12.07V7.1h8.165A1.065,1.065,0,0,0,21.3,6.035V1.065A1.065,1.065,0,0,0,20.235,0ZM10.858,17.04,12,18.181a2.967,2.967,0,0,1-1.353.279,3.035,3.035,0,0,1-1.453-.324,3.759,3.759,0,0,0-1.742-.386,3.76,3.76,0,0,0-1.742.386,3.026,3.026,0,0,1-1.449.324H4.214A2.8,2.8,0,0,1,2.052,17.4a2.876,2.876,0,0,1-.241-.36Zm8.633,0a2.873,2.873,0,0,1-.243.36,2.8,2.8,0,0,1-2.158,1.06h-.05a2.956,2.956,0,0,1-1.349-.278l1.141-1.142Zm-5.646,1.983L11.862,17.04h3.966Zm2.84,1.567H4.615a2.485,2.485,0,0,1-2.454-2.113,3.494,3.494,0,0,0,2.049.693h.05A3.753,3.753,0,0,0,6,18.785a3.033,3.033,0,0,1,1.452-.325,3.033,3.033,0,0,1,1.453.324,3.76,3.76,0,0,0,1.742.386,3.773,3.773,0,0,0,1.743-.384c.049-.022.1-.042.153-.063l.8.8a.71.71,0,0,0,1,0l.8-.8c.049.021.1.04.148.062a3.763,3.763,0,0,0,1.743.385h.053a3.489,3.489,0,0,0,2.046-.693A2.485,2.485,0,0,1,16.685,20.59Zm3.905-5.325a1.065,1.065,0,0,1-.648.98l-.017.006a1.061,1.061,0,0,1-.4.079H1.775a1.059,1.059,0,0,1-.4-.079l-.018-.006A1.065,1.065,0,0,1,1.775,14.2h17.75a1.065,1.065,0,0,1,1.065,1.065ZM14.555,9.23a4.621,4.621,0,0,1,4.6,4.26H2.143a4.615,4.615,0,0,1,4.6-4.26H9.23v.71H8.875a.355.355,0,1,0,0,.71h3.55a.355.355,0,0,0,0-.71H12.07V9.23Zm-3.2.71H9.94V7.1h1.42Zm9.23-3.905a.355.355,0,0,1-.355.355H1.065A.355.355,0,0,1,.71,6.035V1.065A.355.355,0,0,1,1.065.71h19.17a.355.355,0,0,1,.355.355Z" transform="translate(0 0)" fill="#000"/>
    <ellipse id="Oval" cy="0.578" ry="0.578" transform="translate(6.022 11.807)" fill="#000"/>
    <ellipse id="Oval-2" data-name="Oval" cy="0.578" ry="0.578" transform="translate(11.806 11.807)" fill="#000"/>
    <circle id="Oval-3" data-name="Oval" cx="0.578" cy="0.578" r="0.578" transform="translate(14.119 9.493)" fill="#000"/>
    <circle id="Oval-4" data-name="Oval" cx="0.578" cy="0.578" r="0.578" transform="translate(8.336 11.807)" fill="#000"/>
    <circle id="Oval-5" data-name="Oval" cx="0.578" cy="0.578" r="0.578" transform="translate(14.119 11.807)" fill="#000"/>
    <ellipse id="Oval-6" data-name="Oval" cy="0.578" ry="0.578" transform="translate(17.589 11.807)" fill="#000"/>
    <ellipse id="Oval-7" data-name="Oval" cy="0.578" ry="0.578" transform="translate(12.962 10.65)" fill="#000"/>
    <path id="Shape-7" data-name="Shape" d="M12.44,28a3.909,3.909,0,0,0-3.58,2.343.355.355,0,1,0,.651.284A3.2,3.2,0,0,1,12.44,28.71a.355.355,0,0,0,0-.71Z" transform="translate(-5.695 -18.06)" fill="#000"/>
  </g>
</svg>
