<svg id="vegetarian" xmlns="http://www.w3.org/2000/svg" width="21.234" height="22.647" viewBox="0 0 21.234 22.647">
  <g id="Groupe_61" data-name="Groupe 61" transform="translate(0 0)">
    <path id="Tracé_17" data-name="Tracé 17" d="M36.745.533a.71.71,0,0,0-1.2-.31c-.013.013-1.213,1.229-5.222,2.766A4.736,4.736,0,0,0,27.445,5.86a5.4,5.4,0,0,0,.2,3.744,14.062,14.062,0,0,1,6.03-4.118C31.525,6.814,28.412,11.1,28.412,11.1a30.726,30.726,0,0,0-1.932,6.325C23.282,3.084,17.255.19,16.977.063a.708.708,0,1,0-.586,1.29c.068.03,6.806,3.273,9.518,20.7a.709.709,0,0,0,.7.6h.04a.708.708,0,0,0,.668-.675,33.082,33.082,0,0,1,2.43-10.39,6.447,6.447,0,0,0,.987.079,6.58,6.58,0,0,0,5.649-3.3A.4.4,0,0,0,36.42,8.3C37.95,5.34,36.795.728,36.745.533Z" transform="translate(-15.976 0)" fill="#000"/>
  </g>
</svg>
