<svg xmlns="http://www.w3.org/2000/svg" viewBox="0 0 47.32 43.13"><defs><style>.cls-1{fill:#000;}</style></defs><g id="Calque_2" data-name="Calque 2"><g id="Calque_2-2" data-name="Calque 2"><path class="cls-1" d="M39.11,1.47C34.39-.87,28.76-.39,23.76,2.71A15.73,15.73,0,0,0,8.33,1.79,15.41,15.41,0,0,0,0,15.76c0,9.85,8.27,19.61,22.62,26.79l1.17.58L25,42.54c6.75-3.46,22.46-13,22.37-27.31A15.24,15.24,0,0,0,39.11,1.47ZM23.76,37.33c-11.82-6.18-18.58-14-18.6-21.58a10.3,10.3,0,0,1,5.5-9.36,9.67,9.67,0,0,1,4.41-1A12.12,12.12,0,0,1,22.24,7.9L23.79,9l1.53-1.15c3.82-2.87,8-3.52,11.49-1.79a10.09,10.09,0,0,1,5.35,9.16C42.18,19,40.4,28.44,23.76,37.33Z"/></g></g></svg>