<svg xmlns="http://www.w3.org/2000/svg" width="304.307" height="315.017" viewBox="0 0 304.307 315.017">
  <g id="Tracé_5" data-name="Tracé 5" transform="translate(-430.483 -2137.211)" fill="none" stroke-linejoin="round">
    <path d="M470.483,2280.551l224.305-103.339-60.407,235.016-51.715-97.1Z" stroke="none"/>
    <path d="M 694.7884521484375 2177.2119140625 L 470.483154296875 2280.55126953125 L 582.6666870117188 2315.1298828125 L 634.3814697265625 2412.2275390625 L 694.7884521484375 2177.2119140625 M 694.78173828125 2137.21142578125 C 703.9791870117188 2137.21142578125 713.0819702148438 2140.380859375 720.4140625 2146.498291015625 C 732.2680053710938 2156.388427734375 737.3723754882812 2172.217529296875 733.5291748046875 2187.169677734375 L 673.1221923828125 2422.185302734375 C 669.0140380859375 2438.16796875 655.51220703125 2449.987548828125 639.1262817382812 2451.945068359375 C 637.5341186523438 2452.13525390625 635.9446411132812 2452.228759765625 634.3685302734375 2452.228759765625 C 619.724365234375 2452.228759765625 606.0804443359375 2444.18115234375 599.07666015625 2431.031005859375 L 555.1177368164062 2348.495361328125 L 458.7008666992188 2318.776611328125 C 442.8589477539062 2313.8935546875 431.6705932617188 2299.744873046875 430.5712280273438 2283.203857421875 C 429.4718627929688 2266.6630859375 438.6893310546875 2251.158203125 453.7456665039062 2244.221435546875 L 678.0509033203125 2140.882080078125 C 683.3997802734375 2138.417724609375 689.109375 2137.21142578125 694.78173828125 2137.21142578125 Z" stroke="none" fill="#000"/>
  </g>
</svg>
