<svg id="Iconly_Light-outline_Send" data-name="Iconly/Light-outline/Send" xmlns="http://www.w3.org/2000/svg" width="26" height="26" viewBox="0 0 26 26">
  <g id="Send" transform="translate(2.437 2.437)">
    <path id="Send-2" data-name="Send" d="M14,21.126a2.036,2.036,0,0,1-1.677-.863l-.1-.144L8.01,13.126.995,8.809A2.094,2.094,0,0,1,1.34,5.074L1.5,5.02,18.465.085A2.113,2.113,0,0,1,19.052,0a2.091,2.091,0,0,1,2.024,2.538l-.039.152L16,19.633A2.076,2.076,0,0,1,14,21.126ZM14.74,5.549a.8.8,0,0,1,.481.158l.092.078a.818.818,0,0,1,.082,1.058l-.078.092L9.626,12.661l4,6.617a.445.445,0,0,0,.387.222.452.452,0,0,0,.405-.248l.033-.083L19.479,2.227a.464.464,0,0,0-.072-.414.458.458,0,0,0-.364-.186l-.047,0-.079.016L1.957,6.58a.454.454,0,0,0-.318.338.468.468,0,0,0,.136.453l.071.054,6.635,4.083,5.682-5.719A.809.809,0,0,1,14.74,5.549Z" transform="translate(0 0)" fill="#000"/>
  </g>
</svg>
