<svg id="Iconly_Light-outline_3_User" data-name="Iconly/Light-outline/3 User" xmlns="http://www.w3.org/2000/svg" width="24" height="24" viewBox="0 0 24 24">
  <g id="_3_User" data-name="3 User" transform="translate(0 2.5)">
    <path id="_3_User-2" data-name="3 User" d="M4.229,13.747A2.588,2.588,0,0,1,6,11.24a12.975,12.975,0,0,1,5-.718l.305,0a12.232,12.232,0,0,1,4.779.745,2.64,2.64,0,0,1,.076,4.893,11.318,11.318,0,0,1-4.559.787l-.6.005C6.318,16.954,4.229,15.965,4.229,13.747Zm1.5,0c0,1.412,2.867,1.708,5.27,1.708,3.449,0,5.27-.6,5.27-1.725,0-1.411-2.866-1.707-5.27-1.707C7.552,12.022,5.729,12.619,5.729,13.747Zm12.95.4a.75.75,0,0,1,.583-.886c.653-.134,1.081-.348,1.186-.571a.634.634,0,0,0,0-.54c-.107-.224-.538-.439-1.2-.57A8.692,8.692,0,0,0,17.94,11.4a.75.75,0,0,1,.1-1.5,10,10,0,0,1,1.515.219A2.872,2.872,0,0,1,21.8,11.509a2.13,2.13,0,0,1,0,1.829,2.875,2.875,0,0,1-2.238,1.4.749.749,0,0,1-.886-.583Zm-16.235.583A2.876,2.876,0,0,1,.207,13.339a2.123,2.123,0,0,1,0-1.83,2.711,2.711,0,0,1,2.018-1.344l.206-.044A10.212,10.212,0,0,1,3.966,9.9a.75.75,0,1,1,.1,1.5,8.7,8.7,0,0,0-1,.125l-.333.068c-.641.126-1.072.341-1.179.566a.625.625,0,0,0,0,.539c.105.222.533.437,1.185.571a.75.75,0,1,1-.3,1.469ZM7.738,7.871a4.627,4.627,0,0,1,0-6.526,4.608,4.608,0,0,1,7.871,3.263A4.613,4.613,0,0,1,7.738,7.871ZM8.8,2.407A3.128,3.128,0,1,0,11,1.5,3.091,3.091,0,0,0,8.8,2.407Zm7.109,5.088a.75.75,0,0,1,.75-.75,2.151,2.151,0,1,0,0-4.3.75.75,0,0,1,0-1.5,3.651,3.651,0,1,1,0,7.3A.75.75,0,0,1,15.908,7.494ZM1.7,4.593A3.651,3.651,0,0,1,5.352.942a.75.75,0,1,1,0,1.5,2.151,2.151,0,1,0,0,4.3.75.75,0,1,1,0,1.5A3.652,3.652,0,0,1,1.7,4.593Z" transform="translate(0.938 0.938)" fill="#fff"/>
  </g>
</svg>
